<svg id="Layer_1" data-name="Layer 1" xmlns="http://www.w3.org/2000/svg" viewBox="0 0 1198.37 345.52"><defs><style>.cls-1{fill:#231f20;}.cls-2{fill:#36fdab;}</style></defs><path class="cls-1" d="M71.67,214.22,31.59,62.56H61.27l27.3,120.67L120.63,62.56h30.55l31.2,120.67,27.3-120.67h29.89L198.41,214.22H165.48L135.36,101.77l-31,112.45Z"/><path class="cls-1" d="M245,214.22V106.75h24.7l2.6,20.15a45,45,0,0,1,15.92-16.57q10.08-6.18,23.73-6.18V133.4h-7.8a44,44,0,0,0-16.25,2.82A21.89,21.89,0,0,0,276.73,146q-4,6.93-4,19.28v49Z"/><path class="cls-1" d="M340.32,90.07a17.55,17.55,0,0,1-12.46-4.55A15,15,0,0,1,323,74a14.73,14.73,0,0,1,4.88-11.38,19.7,19.7,0,0,1,24.92,0A14.72,14.72,0,0,1,357.65,74a15,15,0,0,1-4.87,11.48A17.56,17.56,0,0,1,340.32,90.07ZM326.45,214.22V106.75h27.73V214.22Z"/><path class="cls-1" d="M425.68,214.22q-16.9,0-27.08-8.24t-10.18-29.25V129.94H370V106.75h18.42l3.25-28.81h24.48v28.81h29v23.19h-29v47c0,5.2,1.11,8.78,3.36,10.73s6.1,2.92,11.59,2.92h13.43v23.62Z"/><path class="cls-1" d="M513,216.82q-16.25,0-28.81-6.93a50.26,50.26,0,0,1-19.72-19.51q-7.14-12.56-7.15-29,0-16.68,7.05-29.68a51.1,51.1,0,0,1,19.49-20.26q12.47-7.26,29.36-7.26,15.81,0,27.95,6.94a49.76,49.76,0,0,1,19,19,53.21,53.21,0,0,1,6.82,26.75c0,1.59,0,3.25-.11,5s-.18,3.54-.32,5.42H484.83q.87,12.57,8.77,19.72a27.55,27.55,0,0,0,19.18,7.15q8.44,0,14.19-3.79a23.61,23.61,0,0,0,8.56-9.86h28.16a51,51,0,0,1-10.07,18.52,49.68,49.68,0,0,1-17.34,13.11A54.74,54.74,0,0,1,513,216.82Zm.22-90.13a29.51,29.51,0,0,0-18,5.74q-7.8,5.74-10,17.44h53.52q-.66-10.62-7.8-16.9T513.21,126.69Z"/><path class="cls-1" d="M585.57,214.22V62.56h32.94l48.31,96.19,47.66-96.19h32.93V214.22H719.68V109.57l-42.25,83H655.55l-42.25-83V214.22Z"/><path class="cls-1" d="M784.24,261.88l21.67-47.66-3.25-7.15L760.85,106.75H791l30.12,75.62,31.41-75.62H882L813.71,261.88Z"/><path class="cls-2" d="M1010.36,141.22c-3.59-3.29-8.86-3.95-14.42-1.83a15.19,15.19,0,0,0-5.59,3.46,205.58,205.58,0,0,0-15.28,17.71c-4.83,6.25-9.73,12.18-14.59,17.64a91.32,91.32,0,0,1-14.25,13.17c-3.91,2.83-7.81,4.28-11.61,4.28-5.51,0-7.92-1.83-9.26-3.22a22.71,22.71,0,0,1-5.49-11,63.33,63.33,0,0,1-1-18.55,134.14,134.14,0,0,1,3.77-22.68,167.72,167.72,0,0,1,7.62-22.95,125.77,125.77,0,0,1,10.11-19.66,60.79,60.79,0,0,1,10.92-13.12c1.94-1.68,4.84-3.68,7.68-3.68a4.77,4.77,0,0,1,1.72.18A5.67,5.67,0,0,1,962,83.68a31.32,31.32,0,0,1,.74,7.2q0,4.74-.25,9.49c-.18,3.45-.27,6.7-.27,9.79,0,6.27,2.16,12.13,5.77,15.67a14.64,14.64,0,0,0,10.15,4c9.23-.18,11.41-9.46,12.13-12.5,1.14-4.86,1.39-10.79,1.6-15.56.08-1.84.15-3.53.27-4.93a42.64,42.64,0,0,0-1.2-14.43,33.37,33.37,0,0,0-7.26-13.56c-3.7-4.26-9.12-7.52-16.15-9.71A39.25,39.25,0,0,0,945,58.86,52.09,52.09,0,0,0,925.6,69.49a84.24,84.24,0,0,0-15.49,17.85,123.24,123.24,0,0,0-11.52,22.3,138.91,138.91,0,0,0-7.18,24.68,109.9,109.9,0,0,0-2,25.28,82.34,82.34,0,0,0,4.24,23.57,51.44,51.44,0,0,0,12.31,20c6.88,6.74,14.39,11,22.3,12.63a47.92,47.92,0,0,0,9.69,1,48.58,48.58,0,0,0,13.45-1.92A71.16,71.16,0,0,0,972.5,204.5a118.39,118.39,0,0,0,17.91-15.58,119.76,119.76,0,0,0,13.94-18,75.62,75.62,0,0,0,8.66-18.23C1014.87,146.22,1011.78,142.52,1010.36,141.22Z"/><path class="cls-2" d="M1166.58,37.89v0a25.4,25.4,0,0,0-2.49-8.28c-2.43-4.66-5.76-6.28-8.2-6.83-1.88-.38-8.38-1.05-12,7.55q-2,4.44-5.76,14-3.75,9.39-8.69,21.91c-1.55,3.91-2.65,6.85-3.77,9.88-1.27,3.41-2.58,6.94-4.66,12.14s-3.51,9-5,12.88c-1.24,3.33-2.52,6.77-4.38,11.47q-6,15.12-11.93,29.57c-2.31,5.59-3.81,9.05-5.33,12.55-1.11,2.55-2.22,5.12-3.66,8.53q-5.07,12.06-9,20.65a99.61,99.61,0,0,1-5.61,11.25c-.94,1.61-1.58,2.21-1.58,2.32a6.79,6.79,0,0,1-2.32-1.3,27.44,27.44,0,0,1-3.88-3.89,51.1,51.1,0,0,1-3.67-5.1c-1.11-1.76-2-3.37-2.74-4.78a71.45,71.45,0,0,1-6.39-20.15,162.6,162.6,0,0,1-2.23-23.92,219.53,219.53,0,0,1,.84-24.38c.24-2.68.94-7.56,1.74-13.12,2.35-16.35,3.83-27.39,3-31.76-.61-3.19-2.7-7.58-9.26-10.37a17.61,17.61,0,0,0-11.59-.61,23.93,23.93,0,0,0-9.8,5.55,30,30,0,0,0-6.91,9.68,31,31,0,0,0-2.74,13.09c0,15,.37,18.24,1.11,24.76.26,2.33.57,5.09.92,9a338.26,338.26,0,0,0,5.44,38.53,152.53,152.53,0,0,0,7.93,26.91,81.91,81.91,0,0,0,9.61,17.49,42.73,42.73,0,0,0,12.06,10.37,38.8,38.8,0,0,0,15,5.13,34,34,0,0,0,3.63.2,32,32,0,0,0,12.12-2.41c5.34-2.18,9.87-6.13,13.52-11.82,2.9-4.72,6.18-10.79,9.73-18s7.25-15.21,11-23.76l3.11-7c2-4.51,3.71-8.3,6.41-14.85q5.93-14.37,11.5-28.5c2-5.13,3.24-8.49,4.46-11.89,1-2.81,2-5.65,3.57-9.6,2-5.15,3-8.19,4-11.22.7-2.11,1.41-4.2,2.45-7q3.83-10.3,6.32-17c1.74-4.61,2.79-7.46,3.09-8.38A20.27,20.27,0,0,0,1166.58,37.89Z"/><path class="cls-2" d="M722.5,307.37c0-20.66-35.54-24.2-55.14-29.91C520.5,242.54,307.79,236.62,151,275.13c-12.52,2.39-7.9,19.91,3.68,16.57,124.55-21.26,247.38-21.34,372.23-3.42,51.23,7.35,100.79,15.85,152.19,31C692.33,323.19,722.5,328.73,722.5,307.37Z"/></svg>