<svg width="70" height="86" viewBox="0 0 70 86" fill="none" xmlns="http://www.w3.org/2000/svg">
<mask id="mask0_84_508" style="mask-type:alpha" maskUnits="userSpaceOnUse" x="0" y="0" width="70" height="86">
<rect width="70" height="86" fill="#D9D9D9"/>
</mask>
<g mask="url(#mask0_84_508)">
<path d="M6.25 7.5C6.25 4.04822 9.04822 1.25 12.5 1.25H37.5H50.4909C52.2232 1.25 53.8779 1.96904 55.06 3.23551L61.5815 10.2228L61.5862 10.2279L67.0925 16.1931C68.1582 17.3476 68.75 18.8612 68.75 20.4324V42.5V77.5C68.75 80.9518 65.9518 83.75 62.5 83.75H12.5C9.04822 83.75 6.25 80.9518 6.25 77.5V7.5Z" fill="white" stroke="#6491F7" stroke-width="2.5"/>
<path d="M60.3475 8.98989L61.25 8.12501L60.3475 8.98989L63.9317 12.7299L65.3997 14.3314L65.6394 15.6094C65.3752 15.474 65.1021 15.3549 64.8218 15.253C64.3618 15.0857 63.876 15.0001 63.3866 15.0001H60.3125H54.375V8.7501V5.00008V4.68345C54.375 4.36201 54.3234 4.04739 54.2258 3.74998L55.4822 3.74997L56.8943 5.22343L56.9026 5.23276L56.9703 5.30862C57.0291 5.37453 57.1146 5.47016 57.2215 5.58942C57.4353 5.82788 57.735 6.16108 58.0789 6.54037C58.7645 7.29667 59.6333 8.24467 60.3475 8.98989Z" stroke="#6491F7" stroke-width="2.5"/>
<rect x="17.5" y="31.25" width="37.5" height="2.5" fill="#6491F7"/>
<rect x="17.5" y="41.25" width="37.5" height="2.5" fill="#6491F7"/>
<rect x="45" y="51.25" width="10" height="2.5" fill="#6491F7"/>
<rect x="45" y="61.25" width="10" height="2.5" fill="#6491F7"/>
<rect x="45" y="71.25" width="10" height="2.5" fill="#6491F7"/>
<rect y="51.25" width="42.5" height="22.5" rx="3.75" fill="#6491F7"/>
<path d="M1.875 57.1475L5.20625 68.75H7.1075L9.46375 59.7963H9.52875L11.885 68.75H13.77L17.1175 57.1475H15.1188L12.86 66.1825H12.795L10.4225 57.1475H8.57L6.1975 66.1825H6.1325L3.87375 57.1475H1.875Z" fill="white"/>
<path d="M21.3952 60.1213C20.1277 60.1213 19.1039 60.5438 18.3402 61.3888C17.5764 62.2175 17.2027 63.2738 17.2027 64.5575C17.2027 65.825 17.5764 66.8813 18.3239 67.6938C19.1039 68.5388 20.1277 68.9775 21.3952 68.9775C22.6627 68.9775 23.6864 68.5388 24.4664 67.6938C25.2139 66.8813 25.5877 65.825 25.5877 64.5575C25.5877 63.2738 25.1977 62.2175 24.4502 61.3888C23.6864 60.5438 22.6627 60.1213 21.3952 60.1213ZM21.3952 61.535C22.1914 61.535 22.8089 61.8438 23.2639 62.4775C23.6539 63.0138 23.8489 63.7125 23.8489 64.5575C23.8489 65.3863 23.6539 66.0688 23.2639 66.6213C22.8089 67.2388 22.1914 67.5638 21.3952 67.5638C20.5989 67.5638 19.9814 67.2388 19.5427 66.6213C19.1527 66.085 18.9739 65.4025 18.9739 64.5575C18.9739 63.7125 19.1527 63.0138 19.5427 62.4775C19.9814 61.8438 20.5989 61.535 21.3952 61.535Z" fill="white"/>
<path d="M30.4737 60.1213C29.9537 60.1213 29.4987 60.2675 29.1087 60.5925C28.7837 60.82 28.5075 61.1613 28.2962 61.6163V60.3488H26.5737V68.75H28.2962V64.2975C28.2962 63.5663 28.5075 62.965 28.9462 62.51C29.3525 62.0875 29.8237 61.8763 30.3437 61.8763C30.7337 61.8763 31.14 61.925 31.5625 62.055V60.3325C31.27 60.1863 30.8962 60.1213 30.4737 60.1213Z" fill="white"/>
<path d="M38.0149 56.92V61.6C37.3324 60.6088 36.4711 60.1213 35.4474 60.1213C34.2449 60.1213 33.2861 60.56 32.6036 61.4375C31.9536 62.25 31.6449 63.2738 31.6449 64.5088C31.6449 65.7925 31.9699 66.8488 32.6199 67.6613C33.3186 68.5388 34.2936 68.9775 35.5286 68.9775C36.6661 68.9775 37.5436 68.555 38.1286 67.7425V68.75H39.7374V56.92H38.0149ZM35.8374 61.5188C36.4711 61.5188 36.9911 61.7625 37.4136 62.2825C37.8361 62.835 38.0636 63.5663 38.0636 64.4763V64.6225C38.0636 65.4675 37.8849 66.15 37.5274 66.6863C37.1049 67.2713 36.5361 67.58 35.7886 67.58C34.9436 67.58 34.3099 67.2713 33.9199 66.67C33.5786 66.15 33.4161 65.435 33.4161 64.5088C33.4161 63.5825 33.5949 62.8675 33.9524 62.38C34.3586 61.795 34.9924 61.5188 35.8374 61.5188Z" fill="white"/>
</g>
</svg>
